<svg version="1.1" viewBox="0.0 0.0 317.2755905511811 300.9737532808399" fill="none" stroke="none" stroke-linecap="square" stroke-miterlimit="10" xmlns:xlink="http://www.w3.org/1999/xlink" xmlns="http://www.w3.org/2000/svg"><clipPath id="p.0"><path d="m0 0l317.2756 0l0 300.97375l-317.2756 0l0 -300.97375z" clip-rule="nonzero"/></clipPath><g clip-path="url(#p.0)"><path fill="#000000" fill-opacity="0.0" d="m0 0l317.2756 0l0 300.97375l-317.2756 0z" fill-rule="evenodd"/><path fill="#000000" fill-opacity="0.0" d="m191.43307 13.6246605l0 0c27.732864 0 54.32988 11.016842 73.93997 30.626945c19.610107 19.610104 30.626953 46.20711 30.626953 73.93999l-104.566925 0z" fill-rule="evenodd"/><path fill="#000000" fill-opacity="0.0" d="m191.43307 13.6246605l0 0c27.732864 0 54.32988 11.016842 73.93997 30.626945c19.610107 19.610104 30.626953 46.20711 30.626953 73.93999" fill-rule="evenodd"/><path stroke="#f18466" stroke-width="16.0" stroke-linejoin="round" stroke-linecap="butt" d="m191.43307 13.6246605l0 0c27.732864 0 54.32988 11.016842 73.93997 30.626945c19.610107 19.610104 30.626953 46.20711 30.626953 73.93999" fill-rule="evenodd"/><path fill="#000000" fill-opacity="0.0" d="m295.99927 183.43307l0 0c0 27.732864 -11.016846 54.32988 -30.626953 73.93997c-19.610107 19.610107 -46.207108 30.626953 -73.93999 30.626953l0 -104.566925z" fill-rule="evenodd"/><path fill="#000000" fill-opacity="0.0" d="m295.99927 183.43307l0 0c0 27.732864 -11.016846 54.32988 -30.626953 73.93997c-19.610107 19.610107 -46.207108 30.626953 -73.93999 30.626953" fill-rule="evenodd"/><path stroke="#afffca" stroke-width="16.0" stroke-linejoin="round" stroke-linecap="butt" d="m295.99927 183.43307l0 0c0 27.732864 -11.016846 54.32988 -30.626953 73.93997c-19.610107 19.610107 -46.207108 30.626953 -73.93999 30.626953" fill-rule="evenodd"/><path fill="#000000" fill-opacity="0.0" d="m20.370079 118.19159l0 0c0 -27.732872 11.016842 -54.32988 30.626945 -73.93999c19.6101 -19.610104 46.207108 -30.626945 73.93998 -30.626945l0 104.566925z" fill-rule="evenodd"/><path fill="#000000" fill-opacity="0.0" d="m20.370079 118.19159l0 0c0 -27.732872 11.016842 -54.32988 30.626945 -73.93999c19.6101 -19.610104 46.207108 -30.626945 73.93998 -30.626945" fill-rule="evenodd"/><path stroke="#7ba2e8" stroke-width="16.0" stroke-linejoin="round" stroke-linecap="butt" d="m20.370079 118.19159l0 0c0 -27.732872 11.016842 -54.32988 30.626945 -73.93999c19.6101 -19.610104 46.207108 -30.626945 73.93998 -30.626945" fill-rule="evenodd"/><path fill="#000000" fill-opacity="0.0" d="m124.937004 288.0l0 0c-27.732872 0 -54.32988 -11.016846 -73.93998 -30.626953c-19.610104 -19.610107 -30.626945 -46.207108 -30.626945 -73.93999l104.566925 0z" fill-rule="evenodd"/><path fill="#000000" fill-opacity="0.0" d="m124.937004 288.0l0 0c-27.732872 0 -54.32988 -11.016846 -73.93998 -30.626953c-19.610104 -19.610107 -30.626945 -46.207108 -30.626945 -73.93999" fill-rule="evenodd"/><path stroke="#fbefab" stroke-width="16.0" stroke-linejoin="round" stroke-linecap="butt" d="m124.937004 288.0l0 0c-27.732872 0 -54.32988 -11.016846 -73.93998 -30.626953c-19.610104 -19.610107 -30.626945 -46.207108 -30.626945 -73.93999" fill-rule="evenodd"/><path fill="#000000" fill-opacity="0.0" d="m76.031494 102.86613l172.18898 0l0 174.51968l-172.18898 0z" fill-rule="evenodd"/><path fill="#434343" d="m147.23462 183.93364q3.96875 1.015625 7.609375 4.15625q3.65625 3.140625 6.015625 7.875q2.375 4.734375 2.375 10.5q0 14.078125 -10.046875 22.078125q-10.046875 8.0 -29.75 8.0q-9.34375 0 -18.6875 -2.109375q-9.34375 -2.125 -16.640625 -5.1875l0 -27.265625q7.9375 3.453125 16.4375 5.640625q8.515625 2.171875 16.203125 2.171875q5.375 0 7.859375 -1.65625q2.5 -1.671875 2.5 -5.515625q0 -7.421875 -8.953125 -7.421875l-9.21875 0l0 -21.0l7.171875 0q8.4375 0 8.4375 -7.171875q0 -6.90625 -8.4375 -6.90625q-6.15625 0 -12.8125 2.890625q-6.65625 2.875 -12.921875 7.484375l-7.546875 -27.265625q7.796875 -4.09375 17.78125 -6.96875q9.984375 -2.890625 20.109375 -2.890625q17.65625 0 27.125 7.421875q9.46875 7.421875 9.46875 21.0q0 8.4375 -3.96875 13.890625q-3.953125 5.4375 -10.109375 8.25zm23.165894 50.8125l0 -20.984375l12.296875 0l0 -57.609375l-16.125 0l0 -14.46875l28.40625 -6.515625l21.515625 0l0 78.59375l10.75 0l0 20.984375l-56.84375 0z" fill-rule="nonzero"/><path fill="#000000" fill-opacity="0.0" d="m76.031494 49.79789l172.18898 0l0 77.5748l-172.18898 0z" fill-rule="evenodd"/><path fill="#434343" d="m121.79712 79.14351l-8.25 0l0 -3.734375l-3.078125 0l0 21.59375l3.359375 0l0 7.875l-20.15625 0l0 -7.875l3.359375 0l0 -21.59375l-3.078125 0l0 3.734375l-8.25 0l0 -11.609375l36.09375 0l0 11.609375zm12.486328 26.40625q-6.8125 0 -10.65625 -3.578125q-3.84375 -3.578125 -3.84375 -10.4375q0 -6.859375 3.84375 -10.4375q3.84375 -3.578125 10.65625 -3.578125q6.765625 0 9.765625 3.53125q3.0 3.53125 3.0 8.75l0 3.46875l-15.546875 0l0 0.28125q0 1.78125 1.046875 2.625q1.0625 0.828125 3.5 0.828125q2.9375 0 5.578125 -0.421875q2.640625 -0.4375 4.609375 -1.109375l0 7.671875q-1.6875 0.921875 -4.9375 1.671875q-3.234375 0.734375 -7.015625 0.734375zm2.78125 -17.5625l0 -0.578125q0 -1.640625 -0.703125 -2.359375q-0.6875 -0.71875 -2.078125 -0.71875q-1.390625 0 -2.09375 0.75q-0.6875 0.734375 -0.6875 2.328125l0 0.578125l5.5625 0zm39.40268 9.015625l0 7.875l-12.671875 0l0 -3.265625q-1.046875 1.53125 -2.953125 2.734375q-1.890625 1.203125 -4.625 1.203125q-3.609375 0 -5.671875 -1.921875q-2.0625 -1.921875 -2.0625 -5.421875q0 -9.078125 15.40625 -9.3125q-0.140625 -1.625 -1.25 -2.21875q-1.09375 -0.609375 -3.734375 -0.609375q-2.15625 0 -4.640625 0.453125q-2.46875 0.453125 -4.53125 1.21875l0 -8.828125q2.546875 -0.625 5.515625 -1.0q2.984375 -0.390625 5.8125 -0.390625q7.15625 0 10.21875 2.59375q3.078125 2.59375 3.078125 8.015625l0 8.875l2.109375 0zm-12.671875 -3.359375q-2.15625 0 -3.34375 0.578125q-1.171875 0.578125 -1.171875 1.921875q0 0.8125 0.5 1.328125q0.515625 0.5 1.421875 0.5q1.25 0 1.921875 -1.0625q0.671875 -1.0625 0.671875 -2.96875l0 -0.296875zm62.69194 3.359375l0 7.875l-15.171875 0l0 -7.875l2.015625 0l0 -7.875q0 -1.578125 -0.671875 -2.3125q-0.671875 -0.75 -2.015625 -0.75q-2.875 0 -2.875 3.0625l0 7.875l2.015625 0l0 7.875l-15.078125 0l0 -7.875l2.015625 0l0 -7.875q0 -1.578125 -0.671875 -2.3125q-0.671875 -0.75 -2.015625 -0.75q-2.875 0 -2.875 3.0625l0 7.875l2.015625 0l0 7.875l-15.171875 0l0 -7.875l2.109375 0l0 -10.9375l-2.109375 0l0 -7.875l13.15625 0l0 3.75q3.453125 -4.421875 8.640625 -4.421875q2.921875 0 4.765625 1.375q1.859375 1.359375 2.625 3.859375q1.734375 -2.5 3.953125 -3.84375q2.234375 -1.34375 5.265625 -1.34375q3.984375 0 5.96875 2.5q2.0 2.5 2.0 6.859375l0 10.078125l2.109375 0z" fill-rule="nonzero"/></g></svg>